<svg width="317" height="238" viewBox="0 0 317 238" fill="none" xmlns="http://www.w3.org/2000/svg">
<g clip-path="url(#clip0_14_2)">
<path d="M26 44H279V213H26V44Z" fill="#C3B1D8" stroke="#283F62" stroke-width="2.25" stroke-linecap="round" stroke-linejoin="round"/>
<path d="M76 17H245V220H76V17Z" fill="#F5EFDF" stroke="#283F62" stroke-width="2.25" stroke-linecap="round" stroke-linejoin="round"/>
<path d="M97.5689 56V49.4545H98.9528V54.859H101.759V56H97.5689ZM103.971 56H102.488L104.747 49.4545H106.531L108.787 56H107.304L105.664 50.9503H105.613L103.971 56ZM103.878 53.4272H107.381V54.5075H103.878V53.4272ZM108.523 49.4545H110.073L111.566 52.2734H111.63L113.122 49.4545H114.672L112.285 53.6861V56H110.911V53.6861L108.523 49.4545ZM121.048 52.7273C121.048 53.4411 120.912 54.0483 120.642 54.549C120.373 55.0497 120.007 55.4322 119.542 55.6964C119.08 55.9585 118.56 56.0895 117.983 56.0895C117.401 56.0895 116.879 55.9574 116.417 55.6932C115.954 55.429 115.589 55.0465 115.32 54.5458C115.052 54.0451 114.918 53.4389 114.918 52.7273C114.918 52.0135 115.052 51.4062 115.32 50.9055C115.589 50.4048 115.954 50.0234 116.417 49.7614C116.879 49.4972 117.401 49.3651 117.983 49.3651C118.56 49.3651 119.08 49.4972 119.542 49.7614C120.007 50.0234 120.373 50.4048 120.642 50.9055C120.912 51.4062 121.048 52.0135 121.048 52.7273ZM119.645 52.7273C119.645 52.2649 119.575 51.875 119.437 51.5575C119.301 51.2401 119.108 50.9993 118.858 50.8352C118.609 50.6712 118.317 50.5891 117.983 50.5891C117.648 50.5891 117.356 50.6712 117.107 50.8352C116.858 50.9993 116.664 51.2401 116.525 51.5575C116.389 51.875 116.321 52.2649 116.321 52.7273C116.321 53.1896 116.389 53.5795 116.525 53.897C116.664 54.2145 116.858 54.4553 117.107 54.6193C117.356 54.7834 117.648 54.8654 117.983 54.8654C118.317 54.8654 118.609 54.7834 118.858 54.6193C119.108 54.4553 119.301 54.2145 119.437 53.897C119.575 53.5795 119.645 53.1896 119.645 52.7273ZM126.116 49.4545H127.5V53.7053C127.5 54.1825 127.386 54.6001 127.158 54.9581C126.932 55.3161 126.615 55.5952 126.208 55.7955C125.801 55.9936 125.327 56.0927 124.786 56.0927C124.243 56.0927 123.768 55.9936 123.361 55.7955C122.954 55.5952 122.637 55.3161 122.412 54.9581C122.186 54.6001 122.073 54.1825 122.073 53.7053V49.4545H123.457V53.587C123.457 53.8363 123.511 54.0579 123.62 54.2518C123.73 54.4457 123.886 54.598 124.086 54.7088C124.287 54.8196 124.52 54.875 124.786 54.875C125.055 54.875 125.288 54.8196 125.486 54.7088C125.686 54.598 125.841 54.4457 125.95 54.2518C126.06 54.0579 126.116 53.8363 126.116 53.587V49.4545ZM128.389 50.5955V49.4545H133.765V50.5955H131.761V56H130.393V50.5955H128.389ZM139.558 49.1477L137.449 56.9844H136.276L138.385 49.1477H139.558ZM144.851 56.1438C144.301 56.1417 143.828 56.0064 143.432 55.7379C143.038 55.4695 142.734 55.0806 142.521 54.5714C142.31 54.0621 142.206 53.4496 142.208 52.7337C142.208 52.0199 142.313 51.4116 142.524 50.9087C142.737 50.4059 143.041 50.0234 143.435 49.7614C143.831 49.4972 144.303 49.3651 144.851 49.3651C145.398 49.3651 145.869 49.4972 146.263 49.7614C146.66 50.0256 146.964 50.4091 147.178 50.9119C147.391 51.4126 147.496 52.0199 147.494 52.7337C147.494 53.4517 147.387 54.0653 147.174 54.5746C146.963 55.0838 146.661 55.4727 146.267 55.7411C145.873 56.0096 145.401 56.1438 144.851 56.1438ZM144.851 54.9964C145.226 54.9964 145.525 54.8079 145.749 54.4308C145.973 54.0536 146.083 53.4879 146.081 52.7337C146.081 52.2372 146.03 51.8239 145.928 51.4936C145.828 51.1634 145.685 50.9151 145.5 50.7489C145.316 50.5827 145.1 50.4996 144.851 50.4996C144.478 50.4996 144.18 50.6861 143.956 51.0589C143.732 51.4318 143.619 51.9901 143.617 52.7337C143.617 53.2365 143.667 53.6562 143.767 53.9929C143.87 54.3274 144.013 54.5788 144.199 54.7472C144.384 54.9134 144.602 54.9964 144.851 54.9964ZM148.481 56V55.0028L150.811 52.8455C151.009 52.6538 151.175 52.4812 151.309 52.3278C151.446 52.1744 151.549 52.0241 151.619 51.8771C151.69 51.728 151.725 51.5671 151.725 51.3945C151.725 51.2028 151.681 51.0376 151.594 50.8991C151.506 50.7585 151.387 50.6509 151.236 50.5763C151.084 50.4996 150.913 50.4613 150.721 50.4613C150.521 50.4613 150.346 50.5018 150.197 50.5827C150.048 50.6637 149.933 50.7798 149.852 50.9311C149.771 51.0824 149.73 51.2624 149.73 51.4712H148.417C148.417 51.043 148.514 50.6712 148.708 50.3558C148.902 50.0405 149.173 49.7965 149.523 49.6239C149.872 49.4513 150.275 49.3651 150.731 49.3651C151.199 49.3651 151.608 49.4482 151.955 49.6143C152.304 49.7784 152.576 50.0064 152.77 50.2983C152.964 50.5902 153.061 50.9247 153.061 51.3018C153.061 51.549 153.012 51.793 152.914 52.0337C152.818 52.2745 152.646 52.5419 152.399 52.8359C152.152 53.1278 151.804 53.4783 151.354 53.8874L150.398 54.8239V54.8686H153.147V56H148.481Z" fill="#283F62"/>
<path d="M97 75H223V129H97V75Z" fill="#E9958C" stroke="#283F62" stroke-width="2.25" stroke-linecap="round" stroke-linejoin="round"/>
<path d="M160 129C174.912 129 187 116.912 187 102C187 87.0883 174.912 75 160 75C145.088 75 133 87.0883 133 102C133 116.912 145.088 129 160 129Z" fill="#789BC5" stroke="#283F62" stroke-width="2.25" stroke-linecap="round" stroke-linejoin="round"/>
<path d="M97 149H223M97 163H175M97 188H144M153 188H223" stroke="#283F62" stroke-width="2.25" stroke-linecap="round" stroke-linejoin="round"/>
<path d="M41 17H58V2M280 17H263V2M41 220H58V236M280 220H263V236M20 74H2M291 149H307M291 164H315" stroke="#283F62" stroke-width="2.25" stroke-linecap="round" stroke-linejoin="round"/>
</g>
<defs>
<clipPath id="clip0_14_2">
<rect width="317" height="238" fill="white"/>
</clipPath>
</defs>
</svg>
